<svg width="30" height="30" viewBox="0 0 22 22" fill="none" xmlns="http://www.w3.org/2000/svg">
<path d="M18.2181 1.10617L4.07908 0.896018C2.46397 0.872012 1.13019 2.16672 1.10618 3.78184L0.896027 17.9209C0.872021 19.536 2.16673 20.8698 3.78185 20.8938L9.67964 20.9815L9.78471 13.9119L7.44122 13.8771L7.49347 10.3619L9.83696 10.3967L9.87237 8.01415C9.90118 6.07574 11.5014 4.52235 13.4399 4.55116L16.9942 4.60399L16.9419 8.11923L13.3876 8.0664L13.3522 10.4489L16.9065 10.5018L16.2684 14.0083L13.3 13.9642L13.1949 21.0337L17.9209 21.104C19.536 21.128 20.8698 19.8333 20.8938 18.2181L21.104 4.07907C21.128 2.46396 19.8333 1.13018 18.2181 1.10617Z" fill="white"/>
</svg>
