<svg width="30" height="30" viewBox="0 0 21 20" fill="none" xmlns="http://www.w3.org/2000/svg">
<path d="M10.2149 0.503798C4.69234 0.669635 0.350279 5.16366 0.511745 10.5406C0.640953 14.8434 3.61423 18.4062 7.62357 19.5734C8.1261 19.65 8.3003 19.3431 8.29254 19.0847C8.2856 18.8535 8.25887 18.2411 8.23033 17.4295C5.46755 18.1001 4.82429 16.2244 4.82429 16.2244C4.33575 15.1142 3.66952 14.8334 3.66952 14.8334C2.74597 14.257 3.72173 14.2401 3.72173 14.2401C4.72748 14.2777 5.28284 15.1974 5.28284 15.1974C6.21881 16.6593 7.6544 16.1857 8.21835 15.92C8.28939 15.2873 8.5339 14.851 8.81229 14.5988C6.58515 14.4219 4.22689 13.6547 4.11487 9.92417C4.08295 8.8615 4.44419 7.98122 5.06512 7.28076C4.94528 7.03808 4.5782 6.05819 5.07519 4.70112C5.07519 4.70112 5.90448 4.41506 7.85393 5.61685C8.64707 5.3765 9.49347 5.24365 10.3429 5.21318C11.1927 5.19262 12.0455 5.27445 12.8517 5.46677C14.713 4.15054 15.558 4.38633 15.558 4.38633C16.1355 5.71114 15.8279 6.71128 15.7353 6.96034C16.393 7.62241 16.8064 8.47942 16.8383 9.5421C16.9506 13.2825 14.6389 14.1759 12.4221 14.4822C12.7807 14.764 13.1235 15.3512 13.1509 16.2636C13.19 17.5665 13.209 18.6139 13.2185 18.9301C13.2261 19.1853 13.4102 19.4847 13.9195 19.3719C17.8802 17.9736 20.6317 14.2365 20.5027 9.94032C20.3413 4.56335 15.7349 0.338037 10.2149 0.503798Z" fill="white"/>
</svg>
